<svg id="visual" viewBox="0 0 960 540" width="960" height="540" xmlns="http://www.w3.org/2000/svg" xmlns:xlink="http://www.w3.org/1999/xlink" version="1.1"><path d="M0 108L16 105C32 102 64 96 96 86.3C128 76.7 160 63.3 192 59.5C224 55.7 256 61.3 288 69.7C320 78 352 89 384 87.3C416 85.7 448 71.3 480 61.7C512 52 544 47 576 45.8C608 44.7 640 47.3 672 59.5C704 71.7 736 93.3 768 101.7C800 110 832 105 864 95.7C896 86.3 928 72.7 944 65.8L960 59L960 0L944 0C928 0 896 0 864 0C832 0 800 0 768 0C736 0 704 0 672 0C640 0 608 0 576 0C544 0 512 0 480 0C448 0 416 0 384 0C352 0 320 0 288 0C256 0 224 0 192 0C160 0 128 0 96 0C64 0 32 0 16 0L0 0Z" fill="#ffd700" stroke-linecap="round" stroke-linejoin="miter"></path></svg>